<svg xmlns="http://www.w3.org/2000/svg" version="1" xmlns:xlink="http://www.w3.org/1999/xlink" width="520" zoomAndPan="magnify" viewBox="76 0 520 600" height="600" preserveAspectRatio="xMidYMid meet"><defs>
        <g></g>
        <clipPath id="2c6c270579">
            <path d="M 324 0 L 595.652344 0 L 595.652344 457 L 324 457 Z M 324 0 " clip-rule="nonzero"></path>
        </clipPath>
        <clipPath id="5495ac9995">
            <path d="M 76.207031 143 L 348 143 L 348 599.648438 L 76.207031 599.648438 Z M 76.207031 143 " clip-rule="nonzero"></path>
        </clipPath>
        <clipPath id="730f2fbf22">
            <path d="M 76.207031 165 L 323 165 L 323 592 L 76.207031 592 Z M 76.207031 165 " clip-rule="nonzero"></path>
        </clipPath>
    </defs><g clip-path="url(#2c6c270579)">
        <path fill="#f869a6" d="M 595.589844 149.925781 L 465.753906 74.957031 L 335.925781 0 L 324.574219 6.550781 L 447.914062 77.761719 L 447.914062 77.75 L 584.25 156.46875 L 584.253906 313.898438 L 584.246094 313.898438 L 584.246094 456.3125 L 595.589844 449.757812 L 595.597656 299.84375 Z M 595.589844 149.925781 " fill-opacity="1" fill-rule="nonzero"></path>
    </g><path fill="#f869a6" d="M 570.78125 167.519531 L 570.777344 164.246094 L 567.949219 162.609375 L 428.769531 82.242188 L 428.761719 82.234375 L 311.121094 14.320312 L 299.746094 20.882812 L 423.085938 92.09375 L 423.085938 92.085938 L 559.421875 170.804688 L 559.425781 328.230469 L 559.417969 328.230469 L 559.417969 470.644531 L 570.792969 464.082031 L 570.796875 328.246094 L 570.792969 328.230469 Z M 570.78125 167.519531 " fill-opacity="1" fill-rule="nonzero"></path><path fill="#f869a6" d="M 545.953125 181.851562 L 545.953125 178.578125 L 543.121094 176.941406 L 403.941406 96.578125 L 403.9375 96.566406 L 286.296875 28.652344 L 274.929688 35.214844 L 398.265625 106.417969 L 398.269531 106.414062 L 534.601562 185.132812 L 534.613281 342.558594 L 534.601562 342.554688 L 534.601562 484.96875 L 545.96875 478.410156 L 545.96875 342.578125 L 545.964844 342.5625 Z M 545.953125 181.851562 " fill-opacity="1" fill-rule="nonzero"></path><path fill="#f869a6" d="M 521.140625 196.179688 L 521.132812 192.910156 L 518.304688 191.269531 L 379.117188 110.910156 L 379.113281 110.898438 L 261.476562 42.980469 L 250.109375 49.546875 L 373.441406 120.757812 L 373.441406 120.746094 L 509.78125 199.460938 L 509.78125 356.894531 L 509.773438 356.894531 L 509.777344 499.304688 L 521.144531 492.738281 L 521.148438 356.90625 L 521.140625 356.898438 Z M 521.140625 196.179688 " fill-opacity="1" fill-rule="nonzero"></path><path fill="#f869a6" d="M 496.316406 210.507812 L 496.3125 207.238281 L 493.484375 205.601562 L 354.300781 125.238281 L 354.292969 125.226562 L 236.660156 57.316406 L 225.289062 63.875 L 348.617188 135.085938 L 348.625 135.074219 L 484.960938 213.792969 L 484.964844 371.226562 L 484.953125 371.222656 L 484.960938 513.632812 L 496.324219 507.070312 L 496.324219 371.242188 L 496.320312 371.226562 Z M 496.316406 210.507812 " fill-opacity="1" fill-rule="nonzero"></path><path fill="#f869a6" d="M 471.492188 224.84375 L 471.480469 221.578125 L 468.652344 219.9375 L 329.46875 139.574219 L 329.464844 139.5625 L 211.832031 71.648438 L 206.085938 74.960938 L 200.46875 78.207031 L 323.800781 149.414062 L 323.800781 149.40625 L 460.140625 228.121094 L 460.140625 385.554688 L 460.128906 385.550781 L 460.136719 527.964844 L 465.753906 524.71875 L 471.496094 521.40625 L 471.496094 385.574219 L 471.492188 385.558594 Z M 471.492188 224.84375 " fill-opacity="1" fill-rule="nonzero"></path><path fill="#f869a6" d="M 446.671875 239.171875 L 446.667969 235.902344 L 443.839844 234.265625 L 304.65625 153.902344 L 304.648438 153.886719 L 187.011719 85.972656 L 175.636719 92.542969 L 298.972656 163.753906 L 298.972656 163.742188 L 435.3125 242.457031 L 435.3125 399.886719 L 435.300781 399.886719 L 435.300781 542.304688 L 446.683594 535.734375 L 446.683594 399.902344 L 446.675781 399.886719 Z M 446.671875 239.171875 " fill-opacity="1" fill-rule="nonzero"></path><path fill="#f869a6" d="M 421.847656 253.503906 L 421.839844 250.234375 L 419.011719 248.597656 L 279.828125 168.234375 L 279.824219 168.21875 L 162.1875 100.308594 L 150.816406 106.871094 L 274.15625 178.074219 L 274.15625 178.066406 L 410.496094 256.785156 L 410.496094 414.21875 L 410.488281 414.210938 L 410.488281 556.628906 L 421.855469 550.066406 L 421.859375 414.234375 L 421.847656 414.222656 Z M 421.847656 253.503906 " fill-opacity="1" fill-rule="nonzero"></path><path fill="#f869a6" d="M 397.03125 267.832031 L 397.019531 264.566406 L 394.195312 262.921875 L 255.011719 182.5625 L 255.003906 182.550781 L 137.367188 114.632812 L 126 121.203125 L 249.332031 192.410156 L 249.339844 192.398438 L 385.675781 271.113281 L 385.679688 428.546875 L 385.667969 428.546875 L 385.664062 570.960938 L 397.039062 564.394531 L 397.039062 428.558594 L 397.035156 428.550781 Z M 397.03125 267.832031 " fill-opacity="1" fill-rule="nonzero"></path><path fill="#f869a6" d="M 372.210938 282.160156 L 372.195312 278.894531 L 369.375 277.253906 L 230.183594 196.898438 L 230.179688 196.882812 L 112.539062 128.96875 L 101.175781 135.53125 L 224.515625 206.738281 L 224.515625 206.726562 L 360.855469 285.445312 L 360.855469 442.878906 L 360.84375 442.875 L 360.84375 585.289062 L 372.210938 578.730469 L 372.210938 442.894531 L 372.207031 442.882812 Z M 372.210938 282.160156 " fill-opacity="1" fill-rule="nonzero"></path><g clip-path="url(#5495ac9995)">
        <path fill="#f869a6" d="M 347.386719 296.492188 L 347.378906 293.230469 L 344.554688 291.585938 L 205.371094 211.222656 L 205.359375 211.210938 L 87.726562 143.296875 L 76.355469 149.863281 L 199.691406 221.070312 L 199.695312 221.0625 L 336.03125 299.777344 L 336.03125 457.207031 L 336.027344 457.207031 L 336.023438 599.625 L 347.398438 593.054688 L 347.398438 457.222656 L 347.390625 457.210938 Z M 347.386719 296.492188 " fill-opacity="1" fill-rule="nonzero"></path>
    </g><path fill="#ff4d8c" d="M 299.648438 320.78125 L 302.476562 322.421875 L 322.570312 334.023438 L 322.574219 320.914062 L 310.996094 314.234375 L 310.996094 300.863281 L 299.644531 294.3125 L 299.644531 317.515625 Z M 299.648438 320.78125 " fill-opacity="1" fill-rule="nonzero"></path><path fill="#ff4d8c" d="M 274.832031 335.113281 L 277.660156 336.753906 L 322.570312 362.6875 L 322.570312 349.578125 L 286.171875 328.5625 L 286.175781 286.535156 L 274.820312 279.976562 L 274.820312 331.84375 Z M 274.832031 335.113281 " fill-opacity="1" fill-rule="nonzero"></path><path fill="#ff4d8c" d="M 261.351562 272.207031 L 250 265.65625 L 250 346.171875 L 250.007812 349.441406 L 252.835938 351.082031 L 322.570312 391.347656 L 322.574219 378.238281 L 261.351562 342.890625 Z M 261.351562 272.207031 " fill-opacity="1" fill-rule="nonzero"></path><path fill="#ff4d8c" d="M 225.1875 363.769531 L 228.015625 365.414062 L 322.570312 420.007812 L 322.570312 406.894531 L 236.527344 357.226562 L 236.535156 257.875 L 225.179688 251.320312 L 225.183594 360.503906 Z M 225.1875 363.769531 " fill-opacity="1" fill-rule="nonzero"></path><path fill="#ff4d8c" d="M 211.710938 243.542969 L 200.359375 236.992188 L 200.359375 374.832031 L 200.363281 378.105469 L 203.191406 379.746094 L 322.570312 448.664062 L 322.574219 435.558594 L 211.710938 371.554688 Z M 211.710938 243.542969 " fill-opacity="1" fill-rule="nonzero"></path><path fill="#ff4d8c" d="M 175.535156 389.167969 L 175.542969 392.433594 L 178.367188 394.074219 L 317.546875 474.433594 L 317.554688 474.449219 L 322.570312 477.34375 L 322.5625 464.21875 L 186.886719 385.886719 L 186.882812 229.21875 L 175.527344 222.652344 L 175.519531 228.441406 L 175.53125 228.460938 Z M 175.535156 389.167969 " fill-opacity="1" fill-rule="nonzero"></path><path fill="#ff4d8c" d="M 298.410156 478.925781 L 298.402344 478.933594 L 162.066406 400.214844 L 162.0625 242.785156 L 162.074219 242.789062 L 162.074219 214.890625 L 150.703125 208.320312 L 150.703125 242.769531 L 150.710938 242.789062 L 150.714844 403.496094 L 150.722656 406.765625 L 153.550781 408.40625 L 292.722656 488.765625 L 292.734375 488.78125 L 322.570312 506.003906 L 322.5625 492.871094 Z M 298.410156 478.925781 " fill-opacity="1" fill-rule="nonzero"></path><path fill="#ff4d8c" d="M 273.585938 493.253906 L 273.585938 493.261719 L 137.242188 414.542969 L 137.242188 257.117188 L 137.253906 257.117188 L 137.253906 200.566406 L 125.882812 193.996094 L 125.878906 257.101562 L 125.886719 257.117188 L 125.886719 417.828125 L 125.898438 421.101562 L 128.71875 422.738281 L 267.902344 503.09375 L 267.914062 503.113281 L 322.570312 534.660156 L 322.5625 521.53125 Z M 273.585938 493.253906 " fill-opacity="1" fill-rule="nonzero"></path><path fill="#ff4d8c" d="M 248.761719 507.589844 L 112.425781 428.878906 L 112.421875 271.445312 L 112.429688 271.449219 L 112.429688 186.234375 L 101.058594 179.671875 L 101.058594 271.429688 L 101.070312 271.449219 L 101.070312 432.164062 L 101.074219 435.429688 L 103.902344 437.070312 L 243.082031 517.421875 L 243.09375 517.441406 L 322.558594 563.324219 L 322.5625 550.191406 L 248.765625 507.585938 Z M 248.761719 507.589844 " fill-opacity="1" fill-rule="nonzero"></path><g clip-path="url(#730f2fbf22)">
        <path fill="#ff4d8c" d="M 223.941406 521.925781 L 87.601562 443.207031 L 87.601562 285.777344 L 87.609375 285.777344 L 87.601562 171.898438 L 76.246094 165.34375 L 76.246094 285.777344 L 76.25 299.839844 L 76.246094 446.492188 L 76.25 449.761719 L 79.078125 451.402344 L 206.085938 524.722656 L 218.261719 531.757812 L 322.558594 591.976562 L 322.558594 578.859375 L 223.941406 521.914062 Z M 223.941406 521.925781 " fill-opacity="1" fill-rule="nonzero"></path>
    </g><style>@media (prefers-color-scheme: light) { :root { filter: none; } }
@media (prefers-color-scheme: dark) { :root { filter: none; } }
</style></svg>